<?xml version="1.0" standalone="no"?>
<!DOCTYPE svg PUBLIC "-//W3C//DTD SVG 20010904//EN"
 "http://www.w3.org/TR/2001/REC-SVG-20010904/DTD/svg10.dtd">
<svg version="1.0" xmlns="http://www.w3.org/2000/svg"
 width="1024.000000pt" height="1024.000000pt" viewBox="0 0 1024.000000 1024.000000"
 preserveAspectRatio="xMidYMid meet">

<g transform="translate(0.000000,1024.000000) scale(0.100000,-0.100000)"
fill="#000000" stroke="none">
<path d="M1259 6530 c-24 -13 -44 -34 -58 -63 -21 -43 -21 -50 -21 -911 0
-961 -3 -916 64 -957 30 -18 74 -19 1211 -19 1153 0 1181 1 1212 20 66 40 63
-12 63 957 0 836 -1 880 -19 913 -10 19 -36 45 -57 57 l-39 23 -1160 -1
c-1126 0 -1161 0 -1196 -19z m2301 -965 l0 -805 -1102 0 -1103 0 0 805 0 805
1103 0 1102 0 0 -805z"/>
<path d="M1730 6027 c0 -4 40 -132 89 -285 49 -152 121 -377 161 -500 l71
-223 91 3 91 3 91 285 c122 377 133 408 139 390 3 -8 54 -165 113 -348 l108
-333 90 3 90 3 54 170 c29 94 80 256 114 360 33 105 79 252 104 327 24 75 44
140 44 145 0 4 -40 7 -90 5 l-90 -3 -35 -112 c-19 -62 -71 -229 -114 -372 -44
-143 -82 -253 -84 -245 -3 8 -31 98 -62 200 -31 102 -81 262 -111 357 l-55
172 -81 3 c-73 3 -81 1 -88 -17 -4 -11 -56 -179 -116 -372 -97 -315 -124 -388
-124 -338 0 13 -151 519 -200 670 l-20 60 -90 0 c-49 0 -90 -3 -90 -8z"/>
<path d="M6824 6000 c-56 -22 -72 -103 -29 -145 18 -19 35 -25 65 -25 54 0 75
12 89 52 17 48 -2 96 -45 114 -38 16 -50 16 -80 4z"/>
<path d="M7904 6000 c-56 -23 -72 -103 -29 -145 18 -19 35 -25 70 -25 59 0 95
32 95 84 0 64 -75 112 -136 86z"/>
<path d="M5550 5550 l0 -450 75 0 75 0 0 32 0 31 23 -21 c111 -104 286 -44
334 116 27 87 24 278 -6 354 -56 144 -209 194 -312 101 l-39 -35 0 161 0 161
-75 0 -75 0 0 -450z m327 55 c12 -8 27 -32 34 -53 16 -46 16 -206 0 -255 -26
-77 -103 -100 -174 -52 l-37 26 0 144 0 144 37 30 c43 35 103 42 140 16z"/>
<path d="M4880 5980 c-56 -4 -75 -9 -77 -20 -15 -99 -96 -561 -102 -579 -5
-18 -26 59 -76 287 l-68 312 -73 0 -73 0 -10 -37 c-24 -93 -121 -543 -121
-562 0 -12 -3 -21 -7 -21 -5 0 -32 140 -62 310 l-55 310 -78 0 c-43 0 -78 -2
-78 -5 0 -2 14 -69 31 -147 33 -154 149 -719 149 -725 0 -1 37 -3 83 -3 l83 0
63 288 c34 158 65 296 68 307 4 11 35 -112 73 -285 l67 -305 81 -3 c45 -2 82
-1 82 1 0 2 41 199 90 437 50 238 89 436 88 439 -2 3 -37 4 -78 1z"/>
<path d="M6064 5963 c12 -38 236 -854 236 -858 0 -3 44 -5 98 -5 l99 0 120
438 121 437 -75 3 c-42 2 -77 1 -79 -1 -3 -3 -168 -609 -177 -652 -6 -28 -5
-30 -98 315 -45 168 -84 313 -87 323 -4 14 -17 17 -84 17 -71 0 -79 -2 -74
-17z"/>
<path d="M7100 5835 l0 -85 -50 0 -50 0 0 -55 0 -55 44 0 44 0 4 -212 c3 -181
6 -219 22 -250 32 -67 113 -97 222 -83 l54 6 0 60 0 59 -46 0 c-94 0 -104 23
-104 252 l0 169 73 -2 72 -2 1 56 2 56 -71 3 -70 3 2 83 2 82 -75 0 -76 0 0
-85z"/>
<path d="M5138 5746 c-128 -47 -185 -162 -176 -353 7 -143 50 -227 142 -276
34 -18 57 -22 136 -22 86 0 100 3 148 29 75 42 76 45 31 94 l-40 42 -41 -21
c-56 -28 -129 -29 -166 -3 -34 25 -62 79 -62 120 l0 30 163 -3 c198 -5 191 -9
185 112 -8 162 -84 253 -220 261 -39 3 -77 -1 -100 -10z m157 -148 c17 -20 25
-42 25 -69 l0 -39 -105 0 c-117 0 -121 3 -91 73 33 79 119 97 171 35z"/>
<path d="M7695 5751 c-11 -5 -33 -23 -50 -41 l-30 -32 -5 34 -5 33 -72 3 -73
3 0 -326 0 -325 75 0 75 0 0 213 0 213 28 26 c35 34 72 48 128 48 l45 0 -3 78
-3 77 -45 2 c-25 1 -54 -2 -65 -6z"/>
<path d="M8355 5741 c-22 -10 -46 -25 -54 -34 -16 -20 -29 -22 -28 -4 1 46 -1
47 -73 47 l-70 0 0 -325 0 -325 75 0 75 0 0 229 0 229 36 31 c31 28 42 32 81
29 37 -2 50 -9 67 -31 20 -27 21 -43 24 -258 l4 -229 75 0 75 0 -4 253 c-5
274 -10 301 -65 360 -47 48 -146 61 -218 28z"/>
<path d="M8888 5746 c-128 -47 -185 -162 -176 -353 8 -157 60 -245 171 -288
87 -33 221 -11 300 49 21 16 18 24 -25 75 l-27 32 -43 -22 c-54 -28 -132 -30
-170 -5 -29 19 -58 81 -58 124 l0 27 165 0 c126 -1 169 2 177 12 7 9 9 44 5
99 -10 164 -84 252 -219 260 -39 3 -77 -1 -100 -10z m151 -141 c15 -15 25 -38
28 -69 l6 -46 -107 0 c-118 0 -122 3 -92 73 32 76 109 96 165 42z"/>
<path d="M6781 5425 l-1 -325 80 0 80 0 0 325 0 325 -79 0 -80 0 0 -325z"/>
<path d="M7870 5425 l0 -325 75 0 75 0 0 325 0 325 -75 0 -75 0 0 -325z"/>
<path d="M5090 4543 l0 -133 96 0 c92 0 95 1 92 22 -3 20 -8 21 -75 19 l-73
-2 0 41 0 41 63 -2 c57 -3 62 -1 65 19 3 21 0 22 -62 22 l-66 0 0 30 0 30 70
0 c66 0 70 1 70 23 0 21 -3 22 -90 22 l-90 0 0 -132z"/>
<path d="M5418 4660 c-20 -15 -28 -31 -28 -51 0 -49 16 -67 76 -85 58 -17 74
-34 54 -59 -15 -19 -57 -19 -90 0 -24 13 -50 5 -50 -15 0 -14 68 -40 104 -40
69 0 114 82 68 123 -10 10 -40 24 -66 33 -51 18 -65 36 -46 59 16 19 37 19 72
1 23 -12 29 -12 39 0 18 22 -10 45 -62 51 -35 4 -50 0 -71 -17z"/>
<path d="M5778 4672 l-88 -3 0 -129 0 -130 95 0 c92 0 95 1 95 23 0 21 -4 22
-72 22 l-73 0 0 35 0 35 63 0 c58 0 62 2 62 23 0 21 -4 22 -65 22 l-65 0 0 30
0 30 75 0 c68 0 75 2 75 19 0 26 -1 26 -102 23z"/>
<path d="M6000 4544 c0 -126 1 -134 20 -134 17 0 20 8 22 92 l3 92 69 -92 c44
-60 75 -92 87 -92 18 0 19 9 19 135 0 134 0 135 -22 131 -22 -3 -23 -8 -23
-90 0 -47 -2 -86 -5 -86 -3 0 -27 32 -55 71 -104 147 -115 144 -115 -27z"/>
<path d="M6414 4670 c-29 -11 -74 -67 -75 -93 -4 -78 15 -123 63 -152 23 -13
28 -22 24 -40 -9 -37 23 -42 37 -5 6 16 18 30 27 30 8 0 30 9 49 21 30 18 32
22 19 35 -13 13 -18 13 -44 -1 -40 -21 -69 -19 -99 8 -81 70 1 201 96 152 26
-14 33 -15 40 -3 14 21 11 26 -21 43 -31 16 -83 19 -116 5z"/>
<path d="M6752 4653 c-5 -15 -30 -76 -55 -135 -45 -106 -45 -108 -23 -108 17
0 27 9 36 30 12 29 15 30 74 30 59 0 62 -1 73 -30 8 -20 18 -30 32 -30 12 0
21 3 21 8 0 4 -24 64 -53 132 -41 98 -58 126 -74 128 -15 2 -23 -5 -31 -25z
m64 -130 c-2 -2 -19 -3 -38 -1 l-34 3 19 45 20 45 19 -44 c10 -24 17 -46 14
-48z"/>
<path d="M7190 4543 l0 -133 54 0 c63 0 101 12 134 42 49 47 48 140 -4 189
-21 20 -39 25 -105 29 l-79 5 0 -132z m150 69 c13 -10 23 -33 27 -58 8 -58
-25 -94 -87 -97 l-45 -2 -3 88 -3 87 45 0 c27 0 52 -7 66 -18z"/>
<path d="M7536 4672 c-3 -3 -6 -63 -6 -134 l0 -128 25 0 26 0 -3 132 c-3 114
-5 131 -20 134 -9 1 -19 -1 -22 -4z"/>
<path d="M7773 4665 c-45 -19 -73 -69 -73 -128 0 -40 5 -53 33 -84 29 -31 41
-37 88 -40 42 -3 61 0 87 16 30 19 32 24 32 76 l0 55 -55 0 c-48 0 -55 -3 -55
-19 0 -15 8 -21 32 -23 28 -2 33 -7 33 -28 0 -21 -7 -27 -37 -34 -49 -12 -85
4 -103 47 -34 82 39 162 113 123 27 -14 31 -14 46 3 16 17 15 19 -18 35 -41
19 -80 20 -123 1z"/>
<path d="M8060 4544 c0 -127 1 -134 20 -134 19 0 20 7 20 129 0 120 -1 129
-20 134 -19 5 -20 0 -20 -129z"/>
<path d="M8214 4671 c-2 -2 -4 -13 -4 -23 0 -14 8 -18 40 -18 l40 0 0 -110 0
-110 25 0 25 0 0 110 0 110 41 0 c35 0 40 3 37 21 -3 19 -10 21 -101 22 -54 1
-101 0 -103 -2z"/>
<path d="M8562 4628 c-11 -29 -36 -90 -56 -135 l-35 -83 23 0 c17 0 27 9 36
30 12 29 15 30 75 30 61 0 63 -1 74 -30 7 -20 17 -30 30 -30 12 0 21 3 21 8 0
4 -23 64 -52 134 -44 107 -57 128 -74 128 -16 0 -26 -12 -42 -52z m75 -105
c-3 -2 -20 -3 -39 -1 l-34 3 19 45 20 45 19 -43 c11 -24 17 -46 15 -49z"/>
<path d="M8850 4544 l0 -134 85 0 c86 0 85 0 85 38 0 4 -28 7 -63 7 l-62 0 -5
110 c-4 95 -7 110 -22 111 -16 2 -18 -11 -18 -132z"/>
<path d="M4460 4665 c-1 -3 -1 -60 -1 -127 0 -117 1 -123 20 -126 18 -3 21 2
21 36 l0 40 50 7 c71 10 100 35 100 90 0 64 -31 85 -121 85 -38 0 -69 -2 -69
-5z m143 -57 c8 -12 7 -24 -1 -42 -10 -22 -18 -26 -57 -26 l-45 0 0 46 0 45
46 -3 c31 -2 51 -9 57 -20z"/>
<path d="M4760 4540 l0 -130 25 0 c23 0 25 4 25 45 0 42 2 45 28 45 21 0 34
-10 57 -45 21 -30 37 -45 53 -45 29 0 28 9 -6 55 l-27 38 27 28 c36 35 37 81
3 114 -22 22 -32 25 -105 25 l-80 0 0 -130z m158 55 c5 -37 -19 -55 -70 -55
l-38 0 0 46 0 45 53 -3 c49 -3 52 -4 55 -33z"/>
<path d="M1017 4423 c-25 -24 6 -129 51 -176 63 -67 -45 -62 1365 -65 843 -1
1291 1 1316 8 93 25 151 97 151 188 l0 52 -577 -2 -578 -3 -3 -32 -3 -33 -280
0 -279 0 0 35 0 35 -578 0 c-318 0 -582 -3 -585 -7z"/>
</g>
</svg>
