<svg width="229" height="46" viewBox="0 0 229 46" fill="none" xmlns="http://www.w3.org/2000/svg">
<path d="M7.00634 0.388462C6.33617 0.64097 5.7777 1.04887 5.38677 1.61216C4.80037 2.44737 4.80037 2.58334 4.80037 19.3071C4.80037 37.9733 4.7166 37.0993 6.58748 37.8956C7.42519 38.2453 8.65383 38.2647 40.403 38.2647C72.5989 38.2647 73.3807 38.2453 74.2464 37.8762C76.0893 37.0993 76.0056 38.1093 76.0056 19.2877C76.0056 3.04951 75.9776 2.19487 75.475 1.55388C75.1958 1.18483 74.4698 0.679818 73.8834 0.446733L72.7943 -1.1757e-05L40.403 0.0194119C8.96099 0.0194119 7.98366 0.0194119 7.00634 0.388462ZM71.2585 19.1323V34.7684H40.4867H9.687V19.1323V3.49625H40.4867H71.2585V19.1323Z" fill="#1D5B41"/>
<path d="M20.1582 10.1586C20.1582 10.2363 21.2751 12.7225 22.6434 15.6943C24.0117 18.6467 26.0222 23.0171 27.1391 25.4062L29.1217 29.7377L31.6627 29.6794L34.2038 29.6211L36.7448 24.0854C40.1515 16.7626 40.4587 16.1605 40.6262 16.5101C40.71 16.6655 42.1341 19.715 43.7816 23.2696L46.7973 29.7377L49.3104 29.6794L51.8236 29.6211L53.3314 26.3191C54.1412 24.4933 55.5653 21.3466 56.5147 19.3266C57.4362 17.2871 58.7207 14.4318 59.4188 12.975C60.089 11.5182 60.6474 10.2557 60.6474 10.1586C60.6474 10.0809 59.5305 10.0226 58.1343 10.0615L55.6212 10.1197L54.6439 12.2952C54.1133 13.4995 52.6613 16.7432 51.4606 19.5208C50.2319 22.2984 49.1708 24.435 49.115 24.2796C49.0312 24.1242 48.2493 22.3761 47.3837 20.3949C46.5181 18.4137 45.1219 15.3059 44.2842 13.4606L42.7484 10.1197L40.4866 10.0615C38.4482 10.0032 38.2248 10.042 38.0293 10.3917C37.9176 10.6053 36.4656 13.8685 34.7902 17.6173C32.0816 23.7357 31.3276 25.1537 31.3276 24.1825C31.3276 23.93 27.1112 14.1016 25.7429 11.1686L25.1845 10.0032H22.6713C21.3031 10.0032 20.1582 10.0615 20.1582 10.1586Z" fill="#1D5B41"/>
<path d="M162.401 10.683C160.837 11.1104 160.391 12.6837 161.591 13.4995C162.094 13.8685 162.569 13.9851 163.406 13.9851C164.914 13.9851 165.501 13.752 165.892 12.975C166.366 12.0427 165.836 11.1104 164.635 10.7607C163.574 10.45 163.239 10.45 162.401 10.683Z" fill="black"/>
<path d="M192.559 10.683C190.995 11.1298 190.548 12.6837 191.749 13.4995C192.251 13.8685 192.726 13.9851 193.703 13.9851C195.351 13.9851 196.356 13.3635 196.356 12.3535C196.356 11.1104 194.262 10.178 192.559 10.683Z" fill="black"/>
<path d="M126.826 19.4237V28.1644H128.921H131.015V27.5428V26.9407L131.657 27.3486C134.757 29.3686 139.643 28.2032 140.984 25.0954C141.738 23.4056 141.654 19.6956 140.816 18.2194C139.252 15.4224 134.98 14.4512 132.104 16.2576L131.015 16.9375V13.8103V10.683H128.921H126.826V19.4237ZM135.957 18.3554C136.293 18.5108 136.711 18.977 136.907 19.3849C137.354 20.2784 137.354 23.3861 136.907 24.3379C136.181 25.8335 134.031 26.2803 132.048 25.3479L131.015 24.8429V22.0459V19.2489L132.048 18.6662C133.249 17.9864 134.924 17.8504 135.957 18.3554Z" fill="black"/>
<path d="M108.118 11.0715C106.554 11.1492 106.023 11.2463 105.968 11.46C105.549 13.3829 103.287 22.3567 103.119 22.7063C102.98 23.0559 102.393 21.5603 100.997 17.1317L99.0984 11.0715H97.0599H95.0215L94.7423 11.7902C94.0721 13.5966 91.3635 22.3373 91.3635 22.7063C91.3635 22.9394 91.2798 23.1142 91.1681 23.1142C91.0284 23.1142 90.2745 20.3949 89.4368 17.0929L87.901 11.0715H85.723C84.5222 11.0715 83.5449 11.1104 83.5449 11.1686C83.5449 11.2075 83.9359 12.5089 84.4106 14.0239C85.332 17.0152 88.5712 27.9896 88.5712 28.1061C88.5712 28.1255 89.6043 28.1644 90.8888 28.1644H93.2065L94.9657 22.5703C95.9151 19.5014 96.7807 16.8209 96.8645 16.6073C96.9762 16.3936 97.8418 18.7827 98.9029 22.143L100.774 28.0672L103.036 28.1255C104.292 28.1644 105.325 28.1449 105.325 28.1061C105.325 28.0672 106.47 24.2408 107.838 19.6179C109.235 14.9951 110.324 11.1492 110.296 11.0909C110.24 11.0327 109.263 11.0132 108.118 11.0715Z" fill="black"/>
<path d="M141.179 11.4017C141.514 12.1398 147.769 27.9896 147.769 28.0672C147.769 28.1255 148.998 28.1644 150.506 28.1644H153.27L156.621 19.6568L160 11.1686L157.905 11.1104C156.733 11.0715 155.755 11.0909 155.7 11.1298C155.616 11.1881 151.008 22.9588 150.757 23.794C150.589 24.3379 150.617 24.3767 148.021 17.6756C146.764 14.4124 145.675 11.596 145.591 11.4017C145.479 11.1298 145.116 11.0715 143.246 11.0715C141.263 11.0715 141.04 11.1104 141.179 11.4017Z" fill="black"/>
<path d="M170.108 13.8879V15.539H168.712H167.316V16.6073V17.6756H168.544H169.773L169.885 21.7934C169.968 25.3091 170.052 26.0472 170.499 26.6493C171.393 27.9507 173.654 28.5334 176.698 28.2615L178.206 28.1449V26.9795V25.8335H176.921C174.297 25.8335 174.017 25.3868 174.017 20.9387V17.6561L176.056 17.695L178.066 17.7338L178.094 16.6461L178.15 15.5584L176.167 15.5001L174.213 15.4418L174.269 13.8297L174.324 12.2369H172.23H170.108V13.8879Z" fill="black"/>
<path d="M115.322 15.6166C111.748 16.5296 110.156 18.7633 110.407 22.4732C110.603 25.2508 111.804 26.8824 114.373 27.8342C115.322 28.1838 115.964 28.2615 118.17 28.2615C120.572 28.2615 120.962 28.2032 122.303 27.6982C124.397 26.8824 124.425 26.8241 123.168 25.8724L122.052 25.0566L120.907 25.4645C119.343 26.0083 117.305 26.0277 116.271 25.5227C115.322 25.0371 114.54 23.9883 114.54 23.1919V22.6092L119.092 22.6674C124.62 22.7646 124.425 22.8423 124.257 20.492C124.034 17.3454 121.912 15.5778 118.114 15.4224C117.025 15.3641 115.964 15.4418 115.322 15.6166ZM119.706 18.4914C120.181 18.8798 120.404 19.3071 120.404 19.8316V20.5891H117.472C114.205 20.5891 114.093 20.5308 114.931 19.1712C115.852 17.6367 118.254 17.2871 119.706 18.4914Z" fill="black"/>
<path d="M186.723 15.5195C186.415 15.6167 185.801 15.9663 185.326 16.3159L184.489 16.9375L184.349 16.2771L184.209 15.6361L182.199 15.5778L180.161 15.5195V21.8517V28.1644H182.255H184.349V24.0271V19.8899L185.131 19.3849C186.108 18.7244 187.141 18.4525 188.705 18.4525H189.962L189.878 16.9375L189.794 15.4418L188.538 15.403C187.84 15.3836 187.03 15.4418 186.723 15.5195Z" fill="black"/>
<path d="M205.152 15.7138C204.538 15.908 203.868 16.1994 203.644 16.3742C203.198 16.7627 202.835 16.8015 202.862 16.4519C202.89 15.5584 202.835 15.539 200.824 15.539H198.869V21.8517V28.1644H200.964H203.058V23.7163V19.2683L204.063 18.6662C204.929 18.1223 205.236 18.0446 206.325 18.1029C207.358 18.1417 207.721 18.2777 208.196 18.705C208.754 19.2295 208.782 19.5402 208.866 23.7163L208.978 28.1644H211.072H213.166L213.055 23.2502C212.915 17.9281 212.775 17.4036 211.24 16.2576C209.927 15.3253 207.163 15.0728 205.152 15.7138Z" fill="black"/>
<path d="M220.035 15.6167C216.461 16.5296 214.87 18.7633 215.121 22.4732C215.344 25.5227 216.796 27.232 219.896 28.0673C222.325 28.7082 226.067 28.2809 228.273 27.1155C228.859 26.8047 228.776 26.6493 227.575 25.6587L226.821 25.0372L225.62 25.4645C224.112 26.0083 221.934 26.0472 220.873 25.5616C220.063 25.1925 219.254 23.9883 219.254 23.1531V22.6286H223.861C227.379 22.648 228.58 22.5898 228.803 22.3955C228.999 22.2207 229.055 21.5409 228.943 20.4726C228.664 17.2871 226.597 15.5778 222.828 15.4224C221.739 15.3642 220.678 15.4418 220.035 15.6167ZM224.252 18.3554C224.671 18.6468 224.95 19.0935 225.034 19.6956L225.201 20.5891H222.213C218.918 20.5891 218.807 20.5309 219.644 19.1712C220.538 17.695 222.688 17.3065 224.252 18.3554Z" fill="black"/>
<path d="M161.2 21.8517L161.172 28.1644H163.406H165.64V21.8517V15.539H163.434H161.2V21.8517Z" fill="black"/>
<path d="M191.609 21.8517V28.1644H193.704H195.798V21.8517V15.539H193.704H191.609V21.8517Z" fill="black"/>
<path d="M113.982 38.9834V41.5667H116.662C119.231 41.5667 119.315 41.5473 119.231 41.1394C119.147 40.7509 119.008 40.7315 117.137 40.7703L115.099 40.8092V40.0128V39.2164L116.858 39.2553C118.449 39.3136 118.589 39.2747 118.673 38.8862C118.757 38.4783 118.673 38.4589 116.941 38.4589H115.099V37.8762V37.2935H117.053C118.896 37.2935 119.008 37.2741 119.008 36.8468C119.008 36.4389 118.924 36.4194 116.495 36.4194H113.982V38.9834Z" fill="black"/>
<path d="M123.141 36.7108C122.582 37.0021 122.359 37.3129 122.359 37.7014C122.359 38.6532 122.805 39.0028 124.481 39.3524C126.1 39.6826 126.547 40.0128 125.989 40.4984C125.57 40.8675 124.397 40.8675 123.476 40.4984C122.805 40.2459 122.079 40.4013 122.079 40.7898C122.079 41.0617 123.978 41.5667 124.984 41.5667C126.91 41.5667 128.167 39.974 126.882 39.1776C126.603 38.9834 125.765 38.7114 125.039 38.5366C123.615 38.187 123.224 37.8374 123.755 37.3906C124.202 37.0216 124.788 37.0216 125.765 37.3712C126.408 37.6043 126.575 37.6043 126.854 37.3712C127.357 36.9439 126.575 36.4971 125.123 36.3806C124.146 36.3029 123.727 36.3806 123.141 36.7108Z" fill="black"/>
<path d="M133.193 36.4777L130.736 36.536V39.0416V41.5667H133.388C135.957 41.5667 136.041 41.5473 136.041 41.12C136.041 40.7121 135.93 40.6926 134.031 40.6926H131.992V40.0128V39.333H133.751C135.371 39.333 135.483 39.2941 135.483 38.8862C135.483 38.4783 135.371 38.4589 133.668 38.4589H131.853V37.8762V37.2935H133.947C135.846 37.2935 136.041 37.2547 136.041 36.9244C136.041 36.4194 136.013 36.4194 133.193 36.4777Z" fill="black"/>
<path d="M139.392 38.9639C139.392 41.4113 139.42 41.5667 139.951 41.5667C140.425 41.5667 140.509 41.4113 140.565 39.7797L140.649 37.9928L142.575 39.7797C143.804 40.9452 144.67 41.5667 145.005 41.5667C145.507 41.5667 145.535 41.3919 145.535 38.9445C145.535 36.3417 145.535 36.3223 144.921 36.4C144.307 36.4583 144.279 36.5554 144.279 38.1481C144.279 39.0611 144.223 39.8186 144.139 39.8186C144.055 39.8186 143.385 39.197 142.603 38.4395C139.699 35.5842 139.392 35.6425 139.392 38.9639Z" fill="black"/>
<path d="M150.952 36.5166C150.143 36.7302 148.886 37.8179 148.858 38.323C148.747 39.838 149.277 40.7121 150.617 41.2754C151.26 41.5279 151.399 41.7027 151.288 42.0523C151.036 42.771 151.93 42.8681 152.321 42.1494C152.488 41.8387 152.823 41.5667 153.075 41.5667C153.298 41.5667 153.912 41.3919 154.443 41.1588C155.281 40.8092 155.336 40.7315 154.973 40.479C154.61 40.2265 154.471 40.2265 153.745 40.4984C152.628 40.9063 151.818 40.8675 150.98 40.343C148.719 38.9834 151.008 36.4389 153.661 37.3906C154.387 37.6626 154.583 37.682 154.778 37.4489C155.169 37.041 155.085 36.9439 154.192 36.6137C153.326 36.3029 151.874 36.2446 150.952 36.5166Z" fill="black"/>
<path d="M160.391 36.8468C160.251 37.1381 159.553 38.323 158.855 39.469C157.598 41.5279 157.598 41.5667 158.213 41.5667C158.687 41.5667 158.967 41.3919 159.218 40.984C159.553 40.4207 159.637 40.4013 161.284 40.4013C162.932 40.4013 163.015 40.4207 163.323 40.984C163.546 41.3725 163.825 41.5667 164.216 41.5667C164.551 41.5667 164.803 41.5084 164.803 41.4113C164.803 41.3336 164.132 40.1682 163.323 38.8474C162.178 36.9439 161.703 36.4 161.256 36.3612C160.837 36.3223 160.614 36.4583 160.391 36.8468ZM162.178 39.3718C162.122 39.4107 161.647 39.4301 161.117 39.3913L160.167 39.333L160.698 38.4589L161.256 37.5849L161.787 38.4395C162.066 38.9057 162.262 39.333 162.178 39.3718Z" fill="black"/>
<path d="M172.621 38.9834V41.5667H174.129C175.888 41.5667 176.949 41.3336 177.871 40.7509C179.239 39.838 179.211 38.0316 177.759 37.0798C177.173 36.6914 176.67 36.5942 174.827 36.5165L172.621 36.4194V38.9834ZM176.81 37.6431C177.173 37.8374 177.452 38.2841 177.564 38.7697C177.787 39.8963 176.865 40.5955 175.134 40.6538L173.878 40.6926L173.794 38.9834L173.71 37.2935H174.967C175.721 37.2935 176.419 37.4295 176.81 37.6431Z" fill="black"/>
<path d="M182.283 36.4777C182.199 36.536 182.115 37.7014 182.115 39.0805V41.5667H182.813H183.539L183.455 39.0028C183.372 36.7885 183.316 36.4583 182.897 36.4C182.646 36.3806 182.366 36.4194 182.283 36.4777Z" fill="black"/>
<path d="M188.901 36.6137C187.644 36.9827 186.862 37.9539 186.862 39.0999C186.862 39.8769 187.002 40.1294 187.784 40.7315C188.593 41.3336 188.929 41.4502 190.241 41.5084C191.414 41.5667 191.944 41.5084 192.67 41.1977C193.508 40.8286 193.564 40.7315 193.564 39.7215V38.6532H192.028C190.688 38.6532 190.492 38.7114 190.492 39.0222C190.492 39.3136 190.716 39.4301 191.386 39.469C192.168 39.5078 192.307 39.6049 192.307 40.0128C192.307 40.4207 192.112 40.5373 191.274 40.6732C189.906 40.9063 188.901 40.5955 188.398 39.7603C187.449 38.1676 189.487 36.6137 191.553 37.3712C192.307 37.6431 192.419 37.6431 192.838 37.3129C193.285 36.9827 193.257 36.9439 192.335 36.6331C191.19 36.264 190.101 36.2446 188.901 36.6137Z" fill="black"/>
<path d="M196.915 38.9639C196.915 41.4307 196.943 41.5667 197.473 41.5667C198.004 41.5667 198.032 41.4307 198.032 39.0611C198.032 36.7302 198.004 36.5554 197.473 36.4583C196.943 36.3612 196.915 36.4583 196.915 38.9639Z" fill="black"/>
<path d="M201.215 36.4971C201.159 36.536 201.103 36.7496 201.103 36.9439C201.103 37.2158 201.327 37.2935 202.22 37.2935H203.337V39.4301V41.5667H204.035H204.733V39.4301V37.2935H205.878C206.856 37.2935 206.995 37.2352 206.911 36.8856C206.828 36.5165 206.632 36.4777 204.091 36.4583C202.583 36.4389 201.271 36.4583 201.215 36.4971Z" fill="black"/>
<path d="M210.932 37.3323C210.625 37.8956 209.927 39.0805 209.369 39.9545L208.391 41.5667H209.033C209.508 41.5667 209.787 41.3919 210.039 40.984C210.374 40.4207 210.458 40.4013 212.133 40.4013C213.836 40.4013 213.892 40.4207 214.199 40.984C214.395 41.3725 214.674 41.5667 215.037 41.5667C215.372 41.5667 215.623 41.5084 215.623 41.4113C215.623 41.3336 214.981 40.1682 214.171 38.8085C212.943 36.7302 212.58 36.3223 212.105 36.3223C211.658 36.3223 211.379 36.5554 210.932 37.3323ZM213.027 39.3718C212.943 39.4107 212.468 39.4301 211.938 39.3913L210.988 39.333L211.519 38.4589L212.077 37.5849L212.608 38.4201C212.915 38.8862 213.082 39.3136 213.027 39.3718Z" fill="black"/>
<path d="M218.974 38.9639V41.5667H221.348C223.749 41.5667 223.721 41.5667 223.721 40.8286C223.721 40.7509 222.94 40.6926 221.962 40.6926H220.231L220.091 38.556C219.98 36.7108 219.896 36.4194 219.477 36.4C219.03 36.3612 218.974 36.6137 218.974 38.9639Z" fill="black"/>
<path d="M96.3897 36.6137C96.3618 36.6719 96.3618 37.7791 96.3618 39.0805C96.3618 41.353 96.3897 41.4696 96.9203 41.5279C97.4229 41.5861 97.5067 41.489 97.5067 40.8286V40.0517L98.9029 39.9157C100.885 39.7215 101.695 39.2359 101.695 38.1676C101.695 36.9244 100.83 36.5165 98.3165 36.5165C97.2554 36.5165 96.3897 36.5554 96.3897 36.6137ZM100.383 37.7208C100.606 37.9539 100.578 38.187 100.355 38.5366C100.076 38.9639 99.8523 39.0416 98.7632 39.0416H97.5067V38.1481V37.2741L98.7912 37.3323C99.6568 37.3712 100.215 37.5072 100.383 37.7208Z" fill="black"/>
<path d="M104.767 39.0416V41.5667H105.465C106.107 41.5667 106.163 41.489 106.163 40.6926C106.163 39.8768 106.219 39.8186 106.945 39.8186C107.531 39.8186 107.894 40.0128 108.537 40.6926C109.123 41.2754 109.57 41.5667 110.016 41.5667C110.826 41.5667 110.798 41.3919 109.849 40.4984L109.095 39.7603L109.849 39.2164C110.854 38.5366 110.882 37.6431 109.933 37.0021C109.318 36.5748 109.039 36.5165 107.001 36.5165H104.767V39.0416ZM109.179 37.9733C109.318 38.692 108.648 39.0416 107.224 39.0416H106.163V38.1481V37.2741L107.643 37.3323C109.011 37.3906 109.095 37.41 109.179 37.9733Z" fill="black"/>
<path d="M0.248759 41.3142C-0.449331 41.7804 0.416301 43.8199 1.67286 44.7328C3.43205 46.0342 0.416301 45.937 39.7886 45.9953C63.3282 46.0147 75.838 45.9759 76.536 45.8399C79.1329 45.3543 80.7525 43.9558 80.7525 42.1883V41.1782L64.6406 41.2171L48.5007 41.2754L48.417 41.8969L48.3332 42.5379H40.5146H32.7239V41.8581V41.1782H16.5841C7.70436 41.1782 0.33253 41.2365 0.248759 41.3142Z" fill="black"/>
</svg>
